# xmcd
#
# Track frame offsets:
#	150
#	11557
#	29277
#	42937
#	60815
#	78067
#	93010
#	107915
#	122677
#	139402
#	155905
#	174340
#	190215
#	205655
#	223537
#	239190
#	249630
#	267200
#	282427
#
# Disc length: 3988 seconds
#
# Revision: 4
# Processed by: cddbd v1.5.2PL0 Copyright (c) Steve Scherf et al.
# Submitted via: audiograbber 1.83.01
#
DISCID=090f9213
DTITLE=SAV-A5 NuTECH - Country (NTE)
DYEAR=1900
DGENRE=Karaoke
TTITLE0=George Jones - The Race Is On (NTE)
TTITLE1=The Judds - Have Mercy (NTE)
TTITLE2=The Oak Ridge Boys - Bobbie Sue (NTE)
TTITLE3=Alabama - Take Me Down (NTE)
TTITLE4=Keith Whitley - I'm No Stranger To The Rain (NTE)
TTITLE5=B.J. Thomas - New Looks From An Old Lover (NTE)
TTITLE6=Hank Snow - I'm Movin' On (NTE)
TTITLE7=Charlie Rich - Since I Fell For You (NTE)
TTITLE8=Highway 101 - The Bed You Made For Me (NTE)
TTITLE9=George Jones - He Stopped Loving Her Today (NTE)
TTITLE10=Exile - She's A Miracle (NTE)
TTITLE11=Anne Murray - Could I Have This Dance (NTE)
TTITLE12=George Strait - Does Fort Worth Ever Cross Your Mind (NTE)
TTITLE13=Crystal Gayle - Our Love Is On The Faultline (NTE)
TTITLE14=Randy Travis - I Won't Need You Anymore (NTE)
TTITLE15=Roger Miller - Dang Me (NTE)
TTITLE16=Reba McEntire - Till Love Comes Again (NTE)
TTITLE17=Glen Campbell - Then You Can Tell Me Goodbye (NTE)
TTITLE18=Roy Orbison - You Got It (NTE)
EXTD=
EXTT0=
EXTT1=
EXTT2=
EXTT3=
EXTT4=
EXTT5=
EXTT6=
EXTT7=
EXTT8=
EXTT9=
EXTT10=
EXTT11=
EXTT12=
EXTT13=
EXTT14=
EXTT15=
EXTT16=
EXTT17=
EXTT18=
PLAYORDER=
